<?xml version="1.0" encoding="UTF-8"?>
<svg width="84px" height="44px" viewBox="0 0 84 44" version="1.1" xmlns="http://www.w3.org/2000/svg" xmlns:xlink="http://www.w3.org/1999/xlink">
    <!-- Generator: Sketch 46 (44423) - http://www.bohemiancoding.com/sketch -->
    <title>Fill 9</title>
    <desc>Created with Sketch.</desc>
    <defs></defs>
    <g id="Page-1" stroke="none" stroke-width="1" fill="none" fill-rule="evenodd">
        <g id="iStock-615272708" fill="#000000">
            <path d="M83.9595229,0.0258823529 C83.9767557,0.484080882 83.9483015,0.936213235 83.8789695,1.37702206 C83.8789695,1.40007353 83.8733588,1.42352941 83.8677481,1.44658088 C83.3792176,4.43275735 81.075229,6.86205882 78.0298282,7.41893382 C77.9893511,11.1354779 75.3118511,14.2955515 71.6745229,14.9102574 L71.4561069,15.6697426 C70.3299618,18.4702941 67.8191794,20.3083456 64.9344847,20.8421691 C62.5844084,21.3290809 60.1766221,22.6798162 59.8552099,26.2402574 C59.8552099,26.2402574 58.7346756,32.0617647 67.4456679,37.4541912 L48.6330344,43.9830147 C48.6330344,43.9830147 44.5821183,23.8918382 19.2823282,22.8541176 C14.9496756,22.8541176 12.8124046,19.45625 11.8525763,16.864375 C8.46251908,15.9597059 6.06635496,12.9100368 5.97458015,9.36698529 C2.45227099,8.73488971 -0.0701335878,5.58654412 0.0388740458,1.98 L30.7686069,1.98 C35.8999809,1.98 40.2322328,6.18952206 40.0715267,11.3615441 C40.0198282,11.4719485 40.0198282,11.5241176 40.0198282,11.6341176 L39.9621183,11.7441176 C33.1246947,5.21529412 24.9823855,6.49121324 22.005916,8.50316176 C30.4984924,15.6640809 29.0793893,22.7206618 42.9041221,27.3244853 C42.9157443,27.3301471 54.0802099,32.2065441 58.5106489,34.9840441 C57.7508015,34.0110294 56.9444656,33.0776471 56.0952481,32.1867279 C45.4289313,20.9958456 51.4564122,2.09930147 66.7291031,0.211102941 C67.7045611,0.0905882353 68.6972519,0.0275 69.7035687,0.0258823529 L83.9595229,0.0258823529" id="Fill-9"></path>
        </g>
    </g>
</svg>